<svg width="28" height="28" viewBox="0 0 28 28" fill="none" xmlns="http://www.w3.org/2000/svg">
<path d="M15.7074 7.72506C15.3538 7.30078 14.7233 7.24346 14.299 7.59702C13.8747 7.95058 13.8174 8.58115 14.171 9.00543L15.7074 7.72506ZM19.6348 14L20.4031 14.6402C20.7121 14.2694 20.7121 13.7307 20.4031 13.3599L19.6348 14ZM14.171 18.9947C13.8174 19.4189 13.8747 20.0495 14.299 20.4031C14.7233 20.7566 15.3538 20.6993 15.7074 20.275L14.171 18.9947ZM8.36525 13C7.81296 13 7.36525 13.4478 7.36525 14C7.36524 14.5523 7.81296 15 8.36524 15L8.36525 13ZM14.171 9.00543L18.8666 14.6402L20.4031 13.3599L15.7074 7.72506L14.171 9.00543ZM18.8666 13.3599L14.171 18.9947L15.7074 20.275L20.4031 14.6402L18.8666 13.3599ZM19.6348 13L8.36525 13L8.36524 15L19.6348 15V13ZM22.3085 5.6915C26.8972 10.2802 26.8972 17.7198 22.3085 22.3085L23.7227 23.7227C29.0924 18.353 29.0924 9.64699 23.7227 4.27728L22.3085 5.6915ZM22.3085 22.3085C17.7198 26.8972 10.2802 26.8972 5.6915 22.3085L4.27728 23.7227C9.64699 29.0924 18.353 29.0924 23.7227 23.7227L22.3085 22.3085ZM5.6915 22.3085C1.10283 17.7198 1.10283 10.2802 5.6915 5.6915L4.27728 4.27728C-1.09243 9.64699 -1.09243 18.353 4.27728 23.7227L5.6915 22.3085ZM5.6915 5.6915C10.2802 1.10283 17.7198 1.10283 22.3085 5.6915L23.7227 4.27728C18.353 -1.09243 9.64699 -1.09243 4.27728 4.27728L5.6915 5.6915Z" fill="white"/>
</svg>
