<svg width="388" height="500" viewBox="0 0 388 500" fill="none" xmlns="http://www.w3.org/2000/svg">
<path d="M256.954 249.28C256.954 315.897 203.162 369.9 136.807 369.9C70.4522 369.9 16.6608 315.897 16.6608 249.28C16.6608 182.664 70.4522 128.661 136.807 128.661C203.162 128.661 256.954 182.664 256.954 249.28ZM22.6681 249.28C22.6681 312.566 73.7699 363.869 136.807 363.869C199.845 363.869 250.946 312.566 250.946 249.28C250.946 185.995 199.845 134.692 136.807 134.692C73.7699 134.692 22.6681 185.995 22.6681 249.28Z" fill="#006FFD" fill-opacity="0.05"/>
<path d="M201.138 250.226C201.138 286.016 172.336 315.03 136.807 315.03C101.279 315.03 72.4769 286.016 72.4769 250.226C72.4769 214.436 101.279 185.423 136.807 185.423C172.336 185.423 201.138 214.436 201.138 250.226ZM75.6934 250.226C75.6934 284.227 103.055 311.79 136.807 311.79C170.56 311.79 197.921 284.227 197.921 250.226C197.921 216.226 170.56 188.663 136.807 188.663C103.055 188.663 75.6934 216.226 75.6934 250.226Z" fill="#006FFD" fill-opacity="0.05"/>
<path d="M319.392 249.28C319.392 350.38 237.646 432.338 136.807 432.338C35.9685 432.338 -45.7775 350.38 -45.7775 249.28C-45.7775 148.18 35.9685 66.2224 136.807 66.2224C237.646 66.2224 319.392 148.18 319.392 249.28ZM-36.6483 249.28C-36.6483 345.325 41.0104 423.185 136.807 423.185C232.604 423.185 310.263 345.325 310.263 249.28C310.263 153.235 232.604 75.3753 136.807 75.3753C41.0104 75.3753 -36.6483 153.235 -36.6483 249.28Z" fill="#006FFD" fill-opacity="0.05"/>
<path d="M387.507 249.753C387.507 387.688 275.688 499.507 137.753 499.507C-0.181625 499.507 -112 387.688 -112 249.753C-112 111.818 -0.181625 0 137.753 0C275.688 0 387.507 111.818 387.507 249.753ZM-99.5123 249.753C-99.5123 380.792 6.71513 487.019 137.753 487.019C268.792 487.019 375.019 380.792 375.019 249.753C375.019 118.715 268.792 12.4877 137.753 12.4877C6.71513 12.4877 -99.5123 118.715 -99.5123 249.753Z" fill="#006FFD" fill-opacity="0.05"/>
</svg>
