<svg width="338" height="363" viewBox="0 0 338 363" fill="none" xmlns="http://www.w3.org/2000/svg">
<path d="M284 191.5C284 242.586 242.586 284 191.5 284C140.414 284 99 242.586 99 191.5C99 140.414 140.414 99 191.5 99C242.586 99 284 140.414 284 191.5ZM103.625 191.5C103.625 240.032 142.968 279.375 191.5 279.375C240.032 279.375 279.375 240.032 279.375 191.5C279.375 142.968 240.032 103.625 191.5 103.625C142.968 103.625 103.625 142.968 103.625 191.5Z" fill="#006FFD" fill-opacity="0.1"/>
<path d="M332 191.5C332 269.096 269.096 332 191.5 332C113.904 332 51 269.096 51 191.5C51 113.904 113.904 51 191.5 51C269.096 51 332 113.904 332 191.5ZM58.025 191.5C58.025 265.216 117.784 324.975 191.5 324.975C265.216 324.975 324.975 265.216 324.975 191.5C324.975 117.784 265.216 58.025 191.5 58.025C117.784 58.025 58.025 117.784 58.025 191.5Z" fill="#006FFD" fill-opacity="0.1"/>
<path d="M384 192C384 298.039 298.039 384 192 384C85.9613 384 0 298.039 0 192C0 85.9613 85.9613 0 192 0C298.039 0 384 85.9613 384 192ZM9.60001 192C9.60001 292.737 91.2633 374.4 192 374.4C292.737 374.4 374.4 292.737 374.4 192C374.4 91.2633 292.737 9.60001 192 9.60001C91.2633 9.60001 9.60001 91.2633 9.60001 192Z" fill="#006FFD" fill-opacity="0.1"/>
</svg>
