<svg width="42" height="40" viewBox="0 0 42 40" fill="none" xmlns="http://www.w3.org/2000/svg">
<path d="M32.8203 31.4654L31.8033 29.7433L32.8203 31.4654ZM33.7214 29.8868L31.7214 29.8868V29.8868H33.7214ZM19.1036 37.2398L18.0307 38.9276L19.1036 37.2398ZM22.935 37.3027L23.9519 39.0248L22.935 37.3027ZM2.49086 12.9175L1.467 11.1994L2.49086 12.9175ZM2.49086 14.4923L1.467 16.2104L2.49086 14.4923ZM21.9386 24.9634L22.9624 26.6814L21.9386 24.9634ZM20.0615 24.9634L21.0853 23.2453L20.0615 24.9634ZM39.5092 12.9175L40.533 11.1994L39.5092 12.9175ZM39.5092 14.4923L38.4853 12.7743V12.7743L39.5092 14.4923ZM10.0322 31.4735L11.1051 29.7856L10.0322 31.4735ZM21.9386 2.44644L20.9147 4.16449L21.9386 2.44644ZM20.0615 2.44644L21.0853 4.16449L20.0615 2.44644ZM41.7 13.6744C41.7 12.5698 40.8046 11.6744 39.7 11.6744C38.5954 11.6744 37.7 12.5698 37.7 13.6744H41.7ZM37.7 23.5744C37.7 24.679 38.5954 25.5744 39.7 25.5744C40.8046 25.5744 41.7 24.679 41.7 23.5744H37.7ZM20.9147 4.16449L38.4853 14.6355L40.533 11.1994L22.9624 0.728381L20.9147 4.16449ZM38.4853 12.7743L20.9147 23.2453L22.9624 26.6814L40.533 16.2104L38.4853 12.7743ZM3.51471 14.6355L21.0853 4.16449L19.0376 0.72838L1.467 11.1994L3.51471 14.6355ZM21.0853 23.2453L10.2063 16.762L8.15855 20.1982L19.0376 26.6814L21.0853 23.2453ZM10.2063 16.762L3.51471 12.7743L1.467 16.2104L8.15855 20.1982L10.2063 16.762ZM7.18241 18.4801V29.9263H11.1824V18.4801H7.18241ZM8.95935 33.1614L18.0307 38.9276L20.1765 35.5519L11.1051 29.7856L8.95935 33.1614ZM23.9519 39.0248L33.8372 33.1876L31.8033 29.7433L21.918 35.5805L23.9519 39.0248ZM35.7214 29.8868L35.7214 18.4801L31.7214 18.4801L31.7214 29.8868L35.7214 29.8868ZM33.8372 33.1876C35.0049 32.4981 35.7214 31.2429 35.7214 29.8868H31.7214C31.7214 29.8278 31.7526 29.7732 31.8033 29.7433L33.8372 33.1876ZM18.0307 38.9276C19.8292 40.0708 22.1169 40.1084 23.9519 39.0248L21.918 35.5805C21.3783 35.8992 20.7055 35.8881 20.1765 35.5519L18.0307 38.9276ZM1.467 11.1994C-0.431063 12.3305 -0.431051 15.0793 1.467 16.2104L3.51471 12.7743C4.2197 13.1944 4.21971 14.2154 3.51471 14.6355L1.467 11.1994ZM20.9147 23.2453C20.9673 23.214 21.0328 23.214 21.0853 23.2453L19.0376 26.6814C20.2467 27.4019 21.7534 27.4019 22.9624 26.6814L20.9147 23.2453ZM38.4853 14.6355C37.7803 14.2154 37.7803 13.1944 38.4853 12.7743L40.533 16.2104C42.4311 15.0793 42.4311 12.3305 40.533 11.1994L38.4853 14.6355ZM7.18241 29.9263C7.18241 31.2376 7.85269 32.4579 8.95935 33.1614L11.1051 29.7856C11.1533 29.8162 11.1824 29.8693 11.1824 29.9263H7.18241ZM22.9624 0.728381C21.7534 0.00785923 20.2467 0.00785589 19.0376 0.72838L21.0853 4.16449C21.0328 4.19582 20.9673 4.19582 20.9147 4.16449L22.9624 0.728381ZM37.7 13.6744V23.5744H41.7V13.6744H37.7Z" fill="#006FFD"/>
</svg>
